<svg xmlns="http://www.w3.org/2000/svg" viewBox="0 0 64 64" role="img" aria-label="PlaidInvest logo">
  <circle cx="32" cy="32" r="32" fill="#f7931a"/>
  <path fill="#1a1a1a" d="M38.2 28.4c.6-4-2.5-6.1-6.7-7.5l1.4-5.5-3.3-.8-1.3 5.2c-.9-.2-1.8-.4-2.7-.6l1.3-5.3-3.3-.8-1.4 5.5c-.7-.2-1.4-.3-2.1-.5l.1-.3-4.6-1.1-.9 3.6s2.5.6 2.4.6c1.4.3 1.6 1.2 1.6 1.9l-1.6 6.4c.1 0 .2.1.4.1l-.4-.1-2.2 8.9c-.2.4-.6 1.1-1.6.8 0 0-2.4-.6-2.4-.6l-1.7 3.9 4.3 1.1c.8.2 1.6.4 2.4.6l-1.4 5.6 3.3.8 1.4-5.5c.9.2 1.8.4 2.7.6l-1.4 5.5 3.3.8 1.4-5.6c5.9 1.1 10.3.7 12.2-4.7 1.5-4.3-.1-6.8-3.2-8.4 2.3-.5 4-2.1 4.5-5.3zm-8 11.5c-1.1 4.3-8.3 2-10.6 1.4l1.9-7.6c2.3.6 9.8 1.7 8.7 6.2zm1.1-11.6c-1 4-7.1 2-9.1 1.5l1.7-6.9c2 .5 8.5 1.4 7.4 5.4z"/>
</svg>
