<svg xmlns="http://www.w3.org/2000/svg" viewBox="0 0 64 64" role="img" aria-label="Bitcoin">
  <circle cx="32" cy="32" r="32" fill="#f7931a"/>
  <path fill="#fff" d="M44.5 27.8c.7-4.6-2.8-7.1-7.6-8.7l1.6-6.2-3.7-.9-1.5 6.1c-1-.3-2-.5-3-.8l1.5-6.1-3.7-.9-1.6 6.2c-.8-.2-1.6-.4-2.4-.6l.1-.4-5.2-1.3-1 4s1.9.4 1.8.5c1 .3 1.2 1 1.1 1.6l-1.8 7.3c.1 0 .2.1.4.1l-.4-.1-2.5 10.1c-.2.5-.7 1.1-1.8.9 0 0-2.7-.7-2.7-.7l-1.9 4.4 4.9 1.2c.9.2 1.8.5 2.7.7l-1.6 6.5 3.7.9 1.6-6.2c1 .3 2 .5 3 .7l-1.6 6.4 3.7.9 1.6-6.5c6.6 1.3 11.6.8 13.7-5.3 1.7-4.8-.1-7.6-3.6-9.4 2.6-.6 4.5-2.4 5-5.9zm-9 12.9c-1.2 4.9-9.4 2.3-12 1.6l2.1-8.6c2.6.7 11 1.9 9.9 7zm1.2-12.9c-1.1 4.4-8 2.2-10.2 1.6l1.9-7.8c2.2.6 9.5 1.5 8.3 6.2z"/>
</svg>
