<svg xmlns="http://www.w3.org/2000/svg" viewBox="0 0 64 64" role="img" aria-label="US Dollar">
  <circle cx="32" cy="32" r="32" fill="#22c55e"/>
  <path fill="#fff" d="M32 14c-9.9 0-18 8.1-18 18s8.1 18 18 18 18-8.1 18-18-8.1-18-18-18zm1 28.5v2.3c0 .8-.7 1.5-1.5 1.5h-1c-.8 0-1.5-.7-1.5-1.5v-2.2c-3.5-.4-6.3-2-6.3-5.2 0-3.4 2.8-5.2 6.8-5.8 3.2-.5 4.7-1.3 4.7-2.8 0-1.5-1.3-2.5-4-2.5-2.4 0-4.2 1-4.5 2.8h-3.2c.2-3.5 2.8-5.8 6.9-6.3v-2.2c0-.8.7-1.5 1.5-1.5h1c.8 0 1.5.7 1.5 1.5v2.2c3 .4 5.5 1.8 5.5 4.8 0 3.2-2.6 5.1-6.7 5.7-3.5.5-5.1 1.4-5.1 3 0 1.6 1.4 2.6 4.2 2.6 2.7 0 4.5-1.1 4.8-3h3.1c-.3 3.3-2.7 5.5-6.7 6v2.3c0 .8-.7 1.5-1.5 1.5h-1c-.8 0-1.5-.7-1.5-1.5v-2.3z"/>
</svg>
